<svg xmlns="http://www.w3.org/2000/svg" width="13.69" height="13.69" viewBox="0 0 13.69 13.69"><defs><style>.a{fill:#cdb071;}</style></defs><path class="a" d="M9.981,8.2c-.172-.086-1.008-.495-1.164-.551s-.27-.086-.384.086-.44.55-.538.663-.2.12-.368.043A4.63,4.63,0,0,1,6.156,7.6a5.175,5.175,0,0,1-.947-1.181c-.1-.171-.011-.265.074-.351s.172-.2.257-.3a1.446,1.446,0,0,0,.169-.283.314.314,0,0,0-.014-.3c-.043-.086-.383-.924-.526-1.258s-.278-.291-.383-.291-.212-.009-.326-.009a.643.643,0,0,0-.455.2,1.9,1.9,0,0,0-.6,1.412A3.337,3.337,0,0,0,4.105,7,7.606,7.606,0,0,0,7.014,9.556c.407.171.724.274.972.359a2.36,2.36,0,0,0,1.072.069,1.755,1.755,0,0,0,1.15-.813,1.412,1.412,0,0,0,.1-.813c-.042-.077-.154-.12-.325-.2M6.88,12.407H6.871a5.706,5.706,0,0,1-2.883-.787L3.782,11.5l-2.139.556.573-2.079L2.08,9.76a5.657,5.657,0,0,1,8.811-6.979A5.583,5.583,0,0,1,12.55,6.769a5.664,5.664,0,0,1-5.667,5.639M11.7,1.967A6.926,6.926,0,0,0,6.871,0a6.782,6.782,0,0,0-5.9,10.175L0,13.69l3.614-.942a6.88,6.88,0,0,0,3.257.825h0A6.811,6.811,0,0,0,13.69,6.787,6.728,6.728,0,0,0,11.7,1.99"/></svg>