<svg xmlns="http://www.w3.org/2000/svg" width="13.69" height="13.686" viewBox="0 0 13.69 13.686"><defs><style>.a{fill:#cdb071;}</style></defs><path class="a" d="M6.841,5.572A3.509,3.509,0,1,0,10.35,9.081,3.5,3.5,0,0,0,6.841,5.572Zm0,5.79A2.281,2.281,0,1,1,9.122,9.081,2.285,2.285,0,0,1,6.841,11.362Zm4.471-5.934a.818.818,0,1,1-.818-.818A.817.817,0,0,1,11.312,5.428Zm2.324.831a4.05,4.05,0,0,0-1.106-2.868A4.077,4.077,0,0,0,9.663,2.286c-1.13-.064-4.517-.064-5.647,0a4.071,4.071,0,0,0-2.868,1.1A4.064,4.064,0,0,0,.043,6.256c-.064,1.13-.064,4.517,0,5.647a4.05,4.05,0,0,0,1.106,2.868,4.082,4.082,0,0,0,2.868,1.106c1.13.064,4.517.064,5.647,0a4.05,4.05,0,0,0,2.868-1.106A4.077,4.077,0,0,0,13.636,11.9c.064-1.13.064-4.514,0-5.644Zm-1.46,6.856a2.31,2.31,0,0,1-1.3,1.3,15.084,15.084,0,0,1-4.034.275,15.2,15.2,0,0,1-4.034-.275,2.31,2.31,0,0,1-1.3-1.3,15.084,15.084,0,0,1-.275-4.034,15.2,15.2,0,0,1,.275-4.034,2.31,2.31,0,0,1,1.3-1.3,15.084,15.084,0,0,1,4.034-.275,15.2,15.2,0,0,1,4.034.275,2.31,2.31,0,0,1,1.3,1.3,15.084,15.084,0,0,1,.275,4.034A15.075,15.075,0,0,1,12.176,13.115Z" transform="translate(0.005 -2.238)"/></svg>