<svg xmlns="http://www.w3.org/2000/svg" xmlns:xlink="http://www.w3.org/1999/xlink" width="554.549" height="236.264" viewBox="0 0 554.549 236.264"><defs><style>.a{fill:url(#a);}</style><linearGradient id="a" x1="0.5" x2="0.5" y2="1" gradientUnits="objectBoundingBox"><stop offset="0" stop-color="#e6b31e"/><stop offset="1" stop-color="#be9639"/></linearGradient></defs><path class="a" d="M537.763,339.552,494.21,277.763h-.388v54.32a6.5,6.5,0,0,0,.582,3.25,2.968,2.968,0,0,0,2.327,1.115l6.888.776V338H482.376v-.777l6.984-.776a2.969,2.969,0,0,0,2.328-1.115,6.5,6.5,0,0,0,.582-3.25V275.629l-.388-.581a7.968,7.968,0,0,0-2.571-2.57,7.875,7.875,0,0,0-3.54-.631h-1.65v-.776h14.453l38.219,53.544h.388V276.987a6.8,6.8,0,0,0-.582-3.3,2.682,2.682,0,0,0-2.328-1.067l-7.857-.776v-.776H549.6v.776l-6.984.776a5.011,5.011,0,0,0-3.1,1.165,4.921,4.921,0,0,0-.776,3.2v62.565Zm-459.1,0L61.687,291.246,46.943,339.552H45.391L21.82,272.622l-7.953-.776v-.776h24.25v.776l-8.439.776,19.11,54.514h.388l11.64-38.218-5.723-16.3-7.954-.776v-.776h24.25v.776l-8.439.776,19.109,54.514h.389l15.52-50.925a7.144,7.144,0,0,0,.291-1.843,1.762,1.762,0,0,0-.581-1.5,4.426,4.426,0,0,0-2.231-.534l-5.917-.485v-.776h20.661v.776l-5.432.485a7.24,7.24,0,0,0-3.588.922,5.772,5.772,0,0,0-1.65,2.958l-19.3,63.341ZM417.774,338v-.777l7.954-.776V272.622l-7.954-.776v-.776h23.378v.776l-7.954.776v63.826l7.954.776V338Zm-66.542,0v-.777l8.438-.776V303.565h-32.3v32.883l8.439.776V338H311.947v-.777l7.954-.776V272.622l-7.954-.776v-.776h23.862v.776l-8.439.776v29.391h32.3V272.622l-8.438-.776v-.776h23.862v.776l-7.954.776v63.826l7.954.776V338ZM226.2,338v-.777l10.476-.776V272.137h-12.8a6.158,6.158,0,0,0-3.4.728,6.857,6.857,0,0,0-2.037,2.958l-6.693,14.938-.776-.194,3.783-21.049h.582a16.908,16.908,0,0,0,3.638,1.262,20.8,20.8,0,0,0,3.831.291h37.345a20.811,20.811,0,0,0,3.832-.291,16.9,16.9,0,0,0,3.637-1.262h.582l2.134,21.049-.776.194-6.014-14.938a6.549,6.549,0,0,0-1.892-2.958,5.9,5.9,0,0,0-3.346-.728H244.144v64.311l10.476.776V338Zm-79.734,0v-.777l7.954-.776V272.622l-7.954-.776v-.776h23.377v.776l-7.953.776v63.826l7.953.776V338Zm383.252-94.855a21.8,21.8,0,0,1-7.275-3.929l-2.037,5.334h-1.261l-1.261-23.182.873-.194a66.081,66.081,0,0,0,2.958,10.282,21.962,21.962,0,0,0,3.928,6.4q4.946,5.528,13.1,5.529,6.984,0,10.912-3.638a12.762,12.762,0,0,0,3.929-9.845,12.624,12.624,0,0,0-2.085-7.372,17.876,17.876,0,0,0-5.674-5.141,92.538,92.538,0,0,0-10.088-4.947,66.268,66.268,0,0,1-8.924-4.607,19.645,19.645,0,0,1-5.965-5.917,15.874,15.874,0,0,1-2.377-8.876,17.766,17.766,0,0,1,9.652-16.15,21.622,21.622,0,0,1,10.234-2.376,20.044,20.044,0,0,1,7.42,1.358,30.653,30.653,0,0,1,7.42,4.462l2.327-4.657h1.261l.97,21.146-.97.291a55.067,55.067,0,0,0-3.976-11.446q-4.851-9.99-14.841-9.991-6.014,0-9.6,3.443t-3.589,9.361a12.423,12.423,0,0,0,1.988,7.178,17.466,17.466,0,0,0,5.53,5.044,109.057,109.057,0,0,0,10.039,5.141,68.724,68.724,0,0,1,9.36,4.947,19.089,19.089,0,0,1,5.723,5.772,15.546,15.546,0,0,1,2.182,8.487,18.762,18.762,0,0,1-2.716,10.04,19,19,0,0,1-7.518,6.935,22.9,22.9,0,0,1-10.815,2.522A28.021,28.021,0,0,1,529.717,243.146Zm-30.846,1.406-43.553-61.789h-.388v54.32a6.5,6.5,0,0,0,.581,3.249,2.97,2.97,0,0,0,2.328,1.116l6.887.776V243H443.484v-.776l6.984-.776a2.968,2.968,0,0,0,2.328-1.116,6.5,6.5,0,0,0,.581-3.249V180.629l-.388-.582a7.975,7.975,0,0,0-2.57-2.57,7.878,7.878,0,0,0-3.541-.63H445.23v-.777h14.453L497.9,229.614h.388V181.987a6.807,6.807,0,0,0-.581-3.3,2.685,2.685,0,0,0-2.328-1.066l-7.857-.776v-.777h23.183v.777l-6.984.776a5.006,5.006,0,0,0-3.1,1.164,4.919,4.919,0,0,0-.776,3.2v62.564ZM390.57,239.9a32.172,32.172,0,0,1-11.057-12.658,40.935,40.935,0,0,1,0-35.405,32.172,32.172,0,0,1,11.057-12.659,28.035,28.035,0,0,1,30.943,0,32.174,32.174,0,0,1,11.058,12.659,40.935,40.935,0,0,1,0,35.405A32.174,32.174,0,0,1,421.513,239.9a28.035,28.035,0,0,1-30.943,0Zm-.242-55.387q-5.53,8.828-5.53,25.026t5.53,24.977q5.528,8.779,15.714,8.779t15.714-8.779q5.528-8.778,5.529-24.977t-5.529-25.026q-5.53-8.828-15.714-8.827T390.328,184.509ZM240.754,244.552l-26.093-62.274h-.388v54.805a6.5,6.5,0,0,0,.582,3.249,2.966,2.966,0,0,0,2.327,1.116l6.888.776V243H202.827v-.776l6.984-.776a2.966,2.966,0,0,0,2.328-1.116,6.5,6.5,0,0,0,.582-3.249v-58.2a3.657,3.657,0,0,0-1.7-1.6,7.8,7.8,0,0,0-2.959-.436H203.6v-.777H220.19l23.862,56.939h.388l21.34-56.939H281.4v.777l-8.438.776v63.826l8.438.776V243H257.535v-.776l7.954-.776V182.375H265.1l-23.378,62.176ZM20.128,239.9A32.181,32.181,0,0,1,9.069,227.237a40.828,40.828,0,0,1,0-35.357,32.246,32.246,0,0,1,11.01-12.707,27.057,27.057,0,0,1,15.326-4.656,30.65,30.65,0,0,1,8.972,1.407,58.009,58.009,0,0,1,10.234,4.414l2.328-4.657H58.2l.969,21.825-1.357.388a36.646,36.646,0,0,0-4.269-12.318,20.263,20.263,0,0,0-7.565-7.324,20.918,20.918,0,0,0-10.283-2.57,17.609,17.609,0,0,0-15.811,8.827q-5.528,8.828-5.529,25.026,0,16.1,5.529,24.88T35.6,243.194A21.346,21.346,0,0,0,51.022,236.4q4.753-5.335,7.178-15.908l1.261.194V243H58.2l-3.3-5.335a37.5,37.5,0,0,1-9.457,5.044,28.871,28.871,0,0,1-9.846,1.842A27.441,27.441,0,0,1,20.128,239.9Zm323.64,3.1v-.776l7.954-.776V177.622l-7.954-.776v-.777h23.378v.777l-7.954.776v63.826l7.954.776V243Zm-55.1,0v-.776l7.953-.776V177.622l-7.953-.776v-.777h24.54q11.349,0,17.412,4.85t6.062,13.677q0,9.409-6.015,14.356t-17.46,4.947h-9.118v27.548l9.507.776V243Zm15.422-30.264h8.827q7.857,0,11.446-4.461t3.589-14.162q0-8.051-3.25-12.464t-11.785-4.414h-8.827ZM177.995,243v-.776l7.954-.97-9.118-24.832H153.357l-8.051,21.437a5.384,5.384,0,0,0-.388,1.746,1.7,1.7,0,0,0,.631,1.5,5.387,5.387,0,0,0,2.279.631l5.918.485V243H133.084v-.776l5.432-.485a6.734,6.734,0,0,0,3.443-.97,6.337,6.337,0,0,0,1.795-2.91l23.764-63.341h1.746l24.444,66.736,8.051.97V243Zm-24.056-28.13h22.31l-10.864-29.585H165ZM108.737,243v-.776l8.439-.776V208.565h-32.3v32.883l8.438.776V243H69.452v-.776l7.954-.776V177.622l-7.954-.776v-.777H93.314v.777l-8.438.776v29.39h32.3v-29.39l-8.439-.776v-.777H132.6v.777l-7.954.776v63.826l7.954.776V243ZM356.57,138.336a17.257,17.257,0,0,1-5.928-6.786,21.887,21.887,0,0,1,0-18.954,17.292,17.292,0,0,1,5.9-6.812,14.5,14.5,0,0,1,8.216-2.5,15.783,15.783,0,0,1,4.706.754,30.517,30.517,0,0,1,5.382,2.366l1.247-2.5h.677l.519,11.7-.728.208a19.638,19.638,0,0,0-2.288-6.6,11.058,11.058,0,0,0-3.978-3.926,10.673,10.673,0,0,0-5.382-1.378,9.439,9.439,0,0,0-8.476,4.732q-2.963,4.732-2.964,13.415t2.964,13.416a9.4,9.4,0,0,0,8.424,4.732,10.286,10.286,0,0,0,4.837-1.17A9.668,9.668,0,0,0,373.236,136v-13.1l-3.744-.417v-.416H381.5v.416l-4.263.417v13.572a15.054,15.054,0,0,1-6.084,3.327,23,23,0,0,1-6.293,1.04A14.708,14.708,0,0,1,356.57,138.336Zm-19.942,2.5L313.28,107.708h-.208v29.119a3.487,3.487,0,0,0,.311,1.742,1.593,1.593,0,0,0,1.248.6l3.692.416V140H306.936v-.417l3.744-.416a1.591,1.591,0,0,0,1.248-.6,3.487,3.487,0,0,0,.311-1.742V106.564l-.208-.311a4.258,4.258,0,0,0-1.378-1.378,4.212,4.212,0,0,0-1.9-.338h-.884v-.416h7.748l20.488,28.7h.208V107.292a3.648,3.648,0,0,0-.311-1.768,1.441,1.441,0,0,0-1.248-.572l-4.212-.416v-.416h12.428v.416l-3.744.416a2.687,2.687,0,0,0-1.664.625,2.636,2.636,0,0,0-.416,1.715v33.54Zm-318.838-2.5a17.257,17.257,0,0,1-5.928-6.786,21.887,21.887,0,0,1,0-18.954,17.285,17.285,0,0,1,5.9-6.812,14.5,14.5,0,0,1,8.216-2.5,16.45,16.45,0,0,1,4.81.754,31.167,31.167,0,0,1,5.486,2.366l1.247-2.5H38.2l.52,11.7-.728.208a19.639,19.639,0,0,0-2.288-6.6,10.866,10.866,0,0,0-4.056-3.926,11.207,11.207,0,0,0-5.512-1.378,9.439,9.439,0,0,0-8.476,4.732Q14.7,113.376,14.7,122.06q0,8.632,2.964,13.338a9.408,9.408,0,0,0,8.424,4.706,11.446,11.446,0,0,0,8.268-3.64Q36.9,133.6,38.2,127.936l.677.1V140H38.2l-1.768-2.86a20.1,20.1,0,0,1-5.07,2.7,15.476,15.476,0,0,1-5.278.988A14.708,14.708,0,0,1,17.79,138.336ZM530.872,140v-.417l4.264-.416V104.952l-4.264-.416v-.416H556.4l.728,9.776-.52.052-2.912-7.28a3.3,3.3,0,0,0-1.013-1.56,3.345,3.345,0,0,0-1.795-.364H539.14v15.964h7.7a2.879,2.879,0,0,0,1.768-.416,2.593,2.593,0,0,0,.728-1.612l.884-4.212h.624V127.78h-.624l-.884-4.212a2.593,2.593,0,0,0-.728-1.612,2.878,2.878,0,0,0-1.768-.417h-7.7v17.836h11.649a3.3,3.3,0,0,0,1.82-.39,3.353,3.353,0,0,0,1.039-1.535l3.433-8.424.572.052L556.352,140Zm-19.552,0v-.417l4.524-.416V121.54H498.528v17.628l4.524.416V140H490.26v-.417l4.264-.416V104.952l-4.264-.416v-.416h12.793v.416l-4.524.416v15.756h17.316V104.952l-4.524-.416v-.416h12.793v.416l-4.264.416v34.216l4.264.416V140Zm-50.908,0v-.417l5.616-.416V104.692h-6.864a3.3,3.3,0,0,0-1.82.391,3.669,3.669,0,0,0-1.092,1.586l-3.588,8.008-.416-.1,2.028-11.284h.312a9.04,9.04,0,0,0,1.949.677,11.178,11.178,0,0,0,2.055.156h20.02a11.168,11.168,0,0,0,2.054-.156,9.045,9.045,0,0,0,1.95-.677h.312l1.144,11.284-.416.1-3.225-8.008a3.507,3.507,0,0,0-1.013-1.586,3.163,3.163,0,0,0-1.795-.391h-7.591v34.476l5.616.416V140Zm-171.988,0v-.417l4.264-.416V104.952l-4.264-.416v-.416h12.533v.416l-4.264.416v34.216l4.264.416V140Zm-29.848,0v-.417l5.616-.416V104.692h-6.864a3.3,3.3,0,0,0-1.82.391,3.677,3.677,0,0,0-1.093,1.586l-3.587,8.008-.416-.1,2.028-11.284h.312a9.04,9.04,0,0,0,1.949.677,11.174,11.174,0,0,0,2.054.156h20.02a11.174,11.174,0,0,0,2.054-.156,9.061,9.061,0,0,0,1.95-.677h.311l1.145,11.284-.417.1-3.224-8.008a3.507,3.507,0,0,0-1.014-1.586,3.158,3.158,0,0,0-1.794-.391H268.2v34.476l5.616.416V140Zm-20.488,0v-.417l4.264-.519-4.888-13.313H224.88l-4.316,11.492a2.888,2.888,0,0,0-.208.936.909.909,0,0,0,.338.806,2.9,2.9,0,0,0,1.221.338l3.173.26V140h-15.5a3.8,3.8,0,0,1-1.872-.364,4.32,4.32,0,0,1-1.3-1.4l-7.956-12.844a4.468,4.468,0,0,0-1.222-1.482,3.758,3.758,0,0,0-1.742-.285h-3.848v15.548l4.523.416V140H183.384v-.417l4.264-.416V104.952l-4.264-.416v-.416H196.54q6.136,0,9.36,2.47a8.463,8.463,0,0,1,3.224,7.151,8.947,8.947,0,0,1-1.976,5.98,10.308,10.308,0,0,1-5.719,3.224h.052L211,137.816a4.185,4.185,0,0,0,1.326,1.4,3.732,3.732,0,0,0,1.713.362l2.889-.258a3.611,3.611,0,0,0,1.846-.519,3.4,3.4,0,0,0,.962-1.561l12.74-33.956h.936l13.1,35.777,4.316.519V140Zm-12.9-15.08h11.96l-5.824-15.86h-.208Zm-33.539-2.08h4.731q4.161,0,6.162-2.21t2-6.786q0-4.628-2.029-6.863t-6.136-2.236h-4.731ZM148.8,140v-.417l4.264-.416V104.952l-4.264-.416v-.416h12.947q6.137,0,9.36,2.184a7.183,7.183,0,0,1,3.225,6.343,7.782,7.782,0,0,1-2.029,5.512,9.273,9.273,0,0,1-5.719,2.7v.208a11.933,11.933,0,0,1,6.916,2.965,8.2,8.2,0,0,1,2.392,6.136,9.416,9.416,0,0,1-2.886,6.994Q170.125,140,164.144,140Zm8.267-.625H162.9q8.06,0,8.059-9.048,0-4.732-2.028-6.864t-6.032-2.132h-5.825Zm0-18.668H163.1q3.483,0,5.018-2.028t1.535-6.033q0-7.9-8.06-7.9h-4.524ZM114.276,140v-.417l4.264-.416V104.952l-4.264-.416v-.416h25.532l.728,9.776-.52.052-2.911-7.28a3.3,3.3,0,0,0-1.014-1.56,3.341,3.341,0,0,0-1.794-.364H122.544v15.964h7.7a2.882,2.882,0,0,0,1.769-.416,2.593,2.593,0,0,0,.727-1.612l.885-4.212h.624V127.78h-.624l-.885-4.212a2.593,2.593,0,0,0-.727-1.612,2.881,2.881,0,0,0-1.769-.417h-7.7v17.836h11.648a3.3,3.3,0,0,0,1.82-.39,3.361,3.361,0,0,0,1.04-1.535l3.432-8.424.572.052L139.756,140ZM81.36,140v-.417l4.264-.416V104.952l-4.264-.416v-.416H94.152v.416l-4.523.416v34.424H101.12a3.3,3.3,0,0,0,1.82-.39,3.36,3.36,0,0,0,1.04-1.535l3.536-8.892.625.1L106.84,140Zm-34.528,0v-.417l4.263-.416V104.952l-4.263-.416v-.416H72.364l.728,9.776-.519.052-2.912-7.28a3.3,3.3,0,0,0-1.014-1.56,3.341,3.341,0,0,0-1.794-.364H55.1v15.964h7.7a2.88,2.88,0,0,0,1.769-.416,2.593,2.593,0,0,0,.728-1.612l.884-4.212H66.8V127.78h-.624l-.884-4.212a2.593,2.593,0,0,0-.728-1.612,2.879,2.879,0,0,0-1.769-.417H55.1v17.836H66.748a3.3,3.3,0,0,0,1.821-.39,3.36,3.36,0,0,0,1.04-1.535l3.433-8.424.571.052L72.312,140Z" transform="translate(-5.044 -103.288)"/></svg>